<svg width="299" height="186" viewBox="0 0 299 186" fill="none" xmlns="http://www.w3.org/2000/svg">
<rect x="1" y="1" width="297" height="184" rx="17" fill="#F0E8F9" stroke="#C5C5C5" stroke-width="2" stroke-dasharray="8 8"/>
<rect x="33" y="33" width="44" height="57.4694" rx="8" fill="#CB98FF"/>
<path d="M36.6667 90.4688C36.6667 90.4688 33 90.4688 33 86.8021C33 83.1354 36.6667 72.1354 55 72.1354C73.3333 72.1354 77 83.1354 77 86.8021C77 90.4688 73.3333 90.4688 73.3333 90.4688H36.6667ZM55 68.4688C57.9174 68.4688 60.7153 67.3098 62.7782 65.2469C64.8411 63.184 66 60.3861 66 57.4688C66 54.5514 64.8411 51.7535 62.7782 49.6906C60.7153 47.6277 57.9174 46.4688 55 46.4688C52.0826 46.4688 49.2847 47.6277 47.2218 49.6906C45.1589 51.7535 44 54.5514 44 57.4688C44 60.3861 45.1589 63.184 47.2218 65.2469C49.2847 67.3098 52.0826 68.4688 55 68.4688Z" fill="#E0C8F9"/>
<rect x="90" y="33" width="69" height="8" rx="4" fill="#CB98FF"/>
<rect x="171" y="33" width="93" height="8" rx="4" fill="#CB98FF"/>
<rect x="90" y="66" width="69" height="8" rx="4" fill="#CB98FF"/>
<rect x="171" y="66" width="93" height="8" rx="4" fill="#CB98FF"/>
<rect x="90" y="86" width="69" height="8" rx="4" fill="#CB98FF"/>
<rect x="171" y="86" width="93" height="8" rx="4" fill="#CB98FF"/>
<rect x="90" y="106" width="69" height="8" rx="4" fill="#CB98FF"/>
<rect x="171" y="106" width="93" height="8" rx="4" fill="#CB98FF"/>
<rect x="90" y="126" width="69" height="8" rx="4" fill="#CB98FF"/>
<rect x="171" y="126" width="93" height="8" rx="4" fill="#CB98FF"/>
<rect x="90" y="146" width="69" height="8" rx="4" fill="#CB98FF"/>
<rect x="171" y="146" width="93" height="8" rx="4" fill="#CB98FF"/>
</svg>
