<svg width="327" height="52" viewBox="0 0 327 52" fill="none" xmlns="http://www.w3.org/2000/svg">
<path d="M5.75425 12.1583C5.75425 12.1583 5.28072 44.8899 8.17634 48.4872C9.54694 50.1902 12.044 50.3414 12.044 50.3414C12.044 50.3414 15.7235 50.7201 15.1977 46.2165C14.672 41.7129 12.6507 35.2988 16.8808 31.4392C21.111 27.5788 47.179 16.0438 32.9009 3.0192C26.9692 -2.39222 -0.60317 -1.04789 0.010072 11.3068C0.010072 11.3068 1.09905 14.2585 3.87776 12.7445C4.74468 11.8611 5.86161 10.8651 7.25721 9.90613C8.96385 8.73298 10.4146 8.10751 12.1006 7.37087C14.1323 6.48304 15.7852 5.94353 16.6816 5.66785C19.4529 4.81634 20.903 4.38651 22.8772 4.5325C24.0589 4.61995 25.9199 4.75705 26.7096 6.03913C27.1817 6.80542 27.2545 7.92298 27.2486 8.20385C27.2398 8.61071 27.2052 9.20432 27.0832 9.90687C26.8243 11.395 26.206 13.1706 23.8162 16.3403C22.6294 17.9143 20.9169 19.9501 18.5684 22.0926C17.9191 22.7647 15.5529 25.1384 14.3867 24.4974C13.9941 24.2817 13.733 23.7289 13.7154 22.6602C13.6404 17.9677 16.6066 11.9886 10.5242 10.7021C10.5242 10.7021 7.14471 10.21 5.75572 12.159L5.75425 12.1583Z" fill="#AA5AFC"/>
<path d="M58.281 18.4759C57.8246 13.1941 56.129 6.20052 55.3594 3.8358C55.0462 2.87252 54.5371 0.873507 52.9788 0.223082C51.7947 -0.271344 50.4382 0.174492 49.672 0.425967C48.4453 0.82918 47.5208 1.48813 46.8383 2.09764C46.2999 2.57842 44.1069 4.63967 42.3174 10.7279C41.82 12.4184 41.2271 14.853 40.9064 17.8809L37.5285 45.0291C37.5285 45.0291 36.2741 48.5694 38.2411 50.34C41.2966 53.09 42.8876 48.1636 42.8876 48.1636C43.0752 47.5678 43.3633 46.6983 43.7568 45.6608C44.1579 44.6038 44.3589 44.0752 44.5691 43.6661C44.7139 43.3848 46.15 40.6663 48.5457 39.8496C49.3278 39.5828 50.2272 39.5009 50.228 39.5009C50.9172 39.4387 51.2613 39.4072 51.5218 39.5044C52.5475 39.8888 52.828 41.7676 53.1789 44.1145C53.3414 45.2039 53.482 45.7265 53.7634 46.7699C53.9275 47.3802 54.1176 48.0017 54.6753 48.3733C54.9868 48.5805 55.2874 48.6265 55.4875 48.6564C56.5326 48.8141 57.3582 48.2378 57.8338 47.9053C58.0943 47.7238 58.2592 47.5644 58.3949 47.3649C58.6051 47.0563 58.6796 46.7486 58.7097 46.5602L58.8797 45.4929C60.191 37.8608 58.7374 23.7569 58.281 18.4751V18.4759ZM51.4255 33.1382C51.3191 33.4229 51.1031 33.5593 51.0403 33.5951C50.8988 33.7426 50.6953 33.9216 50.4206 34.0742C49.9098 34.3581 49.425 34.399 49.1595 34.4007C48.7249 34.4442 48.2903 34.4876 47.8557 34.5311H47.2361C46.9681 34.5925 46.6935 34.4996 46.5302 34.2916C46.3351 34.0427 46.3929 33.7452 46.4021 33.7042C46.4021 33.7042 48.0693 18.2074 50.058 21.7332C50.4675 23.2582 50.8452 25.0228 51.1039 26.9979C51.3735 29.0592 51.459 30.9372 51.4481 32.5722C51.469 32.6455 51.5251 32.8748 51.4263 33.1382H51.4255Z" fill="#AA5AFC"/>
<path d="M104.688 40.1535C104.469 39.7094 104.041 39.5777 103.972 39.5582C102.641 39.2812 100.777 38.8597 98.5722 38.2516C95.6918 37.4568 92.7924 36.4972 91.121 35.8304C88.8318 34.9167 84.0602 32.6422 78.3092 26.9523C78.3092 26.9523 93.3405 24.3392 97.3397 16.8829C101.34 9.42731 94.3463 3.96998 90.9656 2.9193C87.5849 1.86863 83.6372 -0.693329 69.5739 0.177466L61.5231 1.17696C61.1334 1.39673 60.3853 1.89422 59.8971 2.81695C59.5265 3.51765 59.4749 4.14384 59.4325 4.73841C59.3878 5.36686 59.3976 6.42506 59.8456 7.69776L60.8265 8.99154C61.1448 9.24743 61.4973 9.57934 61.8331 10.0038C62.7184 11.123 63.0201 12.2933 63.1361 12.9888C63.2157 14.3021 63.2725 15.6614 63.3036 17.0628C63.3317 18.3264 63.337 19.6368 63.3036 21.7772C63.2665 24.1714 63.2074 25.9062 63.1361 27.9902C63.1361 27.9902 62.9421 33.6703 63.171 42.169C63.1793 42.4648 63.1922 42.8908 63.2779 43.4207C63.2779 43.4207 63.3362 43.7774 63.4264 44.1319C64.4558 48.1713 66.7359 49.0895 66.7359 49.0895C67.2794 49.3333 68.5475 49.8075 69.7694 49.295C69.7694 49.295 69.9013 49.24 70.0886 49.1286C70.0886 49.1286 70.4478 48.9164 70.742 48.6281C71.4621 47.9222 71.3029 46.1941 71.3029 46.1941C71.2566 44.8183 71.2263 43.4139 71.2157 41.9824C71.1975 39.5627 71.2347 37.2175 71.3165 34.9513C71.3476 34.4162 71.4302 33.9864 71.506 33.6786C71.5871 33.3497 71.6629 33.1525 71.8396 33.078C71.9934 33.0133 72.1617 33.0675 72.2602 33.1119C72.4573 33.1856 72.6537 33.2594 72.8507 33.3331C73.6671 33.723 74.9603 34.3763 76.4695 35.3126C78.8708 36.8013 79.8274 37.7692 85.3139 42.23C85.6596 42.5107 87.9199 44.3359 90.7519 46.0157C91.3461 46.368 92.5021 47.0326 94.1386 47.3991C94.7943 47.5458 95.6471 47.7468 96.662 47.6271C97.5504 47.5225 98.5593 47.0627 100.448 45.7854C103.97 43.4026 104.744 41.0198 104.744 41.0198C104.77 40.943 104.887 40.5629 104.686 40.155L104.688 40.1535ZM76.1549 20.8417C75.3294 21.066 74.5032 21.2903 73.6777 21.5146C73.257 21.6252 72.9478 21.5906 72.7287 21.4453C71.9237 20.9795 71.7819 19.8896 71.7486 19.4772V10.9454C71.8047 10.3907 72.0109 9.16765 72.9682 8.15913C73.2146 7.89947 73.8847 7.25973 75.7357 6.75622C77.6792 6.22787 79.4037 6.26325 80.7287 6.39119C81.1509 6.43183 87.0171 7.05351 89.3988 9.94587C90.2243 10.9484 90.2084 11.7093 90.197 11.9072C90.1508 12.7125 89.658 13.2943 89.4056 13.5525C88.1784 14.6393 86.6419 15.8367 84.7734 16.9792C82.3781 18.4438 80.1231 19.3997 78.2705 20.0349C78.2705 20.0326 77.2714 20.4142 76.1549 20.8417Z" fill="#AA5AFC"/>
<path d="M127.514 18.7765C127.024 13.4099 125.203 6.30411 124.376 3.90144C123.55 1.49877 122.493 0.569403 121.819 0.230742C120.588 -0.389414 118.269 0.436882 118.268 0.436882C118.268 0.436882 117.396 0.805858 116.901 1.05098C116.901 1.05098 116.128 1.42775 115.224 2.13538C112.464 4.29813 111.52 7.1997 110.368 10.9042C109.834 12.6217 109.197 15.0954 108.853 18.172L105.225 45.7559C105.225 45.7559 103.877 49.353 105.99 51.152C109.272 53.9461 110.981 48.9407 110.981 48.9407C111.182 48.3353 111.492 47.4518 111.914 46.3977C112.345 45.3237 112.561 44.7867 112.787 44.371C112.942 44.0851 114.485 41.323 117.058 40.4932C117.898 40.2221 118.864 40.139 118.865 40.139C119.605 40.0758 119.975 40.0437 120.254 40.1425C121.356 40.5331 121.658 42.4421 122.034 44.8265C122.209 45.9335 122.36 46.4644 122.662 47.5246C122.838 48.1447 123.043 48.7761 123.642 49.1538C123.976 49.3642 124.299 49.411 124.514 49.4413C125.636 49.6016 126.523 49.0161 127.034 48.6783C127.314 48.4938 127.491 48.3318 127.637 48.1291C127.862 47.8156 127.943 47.5029 127.975 47.3115C128.036 46.9503 128.096 46.5883 128.157 46.2271C129.566 38.4725 128.005 24.1423 127.514 18.7757V18.7765ZM120.151 33.6741C120.037 33.9634 119.805 34.102 119.737 34.1384C119.585 34.2882 119.367 34.4701 119.072 34.6251C118.523 34.9136 118.002 34.9551 117.717 34.9569C117.25 35.001 116.784 35.0452 116.317 35.0894H115.651C115.364 35.1518 115.069 35.0573 114.893 34.846C114.684 34.5931 114.746 34.2908 114.756 34.2492C114.756 34.2492 116.546 18.5037 118.682 22.086C119.122 23.6356 119.528 25.4285 119.806 27.4353C120.095 29.5296 120.187 31.4377 120.175 33.099C120.198 33.1735 120.258 33.4065 120.152 33.6741H120.151Z" fill="#AA5AFC"/>
<path d="M173.247 13.1267C173.149 11.4382 172.92 9.87026 172.034 8.30725C170.842 6.20331 168.584 4.53644 164.388 2.6045C151.39 -3.38245 137.046 2.46074 132.98 5.1505C132.382 5.54603 130.302 6.92207 129.253 9.42986C128.566 11.0735 128.735 12.2168 128.796 12.5542C128.912 13.1957 129.149 14.6299 130.183 15.121C131.584 15.7857 134.677 14.767 135.206 15.0786C135.428 15.2099 135.555 15.3861 135.555 15.3861C135.592 15.45 135.629 15.5132 135.666 15.5772C135.705 15.6835 135.762 15.8406 135.821 16.0334C136.208 17.2964 136.194 18.3251 136.181 19.6829C136.179 19.8432 136.172 21.8583 136.159 22.0943C136.159 22.0943 136.035 24.666 135.891 31.6692C135.844 33.9767 135.915 37.3321 136.499 41.5558C136.57 42.4897 136.765 43.7013 137.262 45.0349C137.541 45.7828 137.861 46.4267 138.173 46.9652C138.3 47.1846 138.693 47.7064 139.318 48.2648C139.739 48.6412 140.198 49.0517 140.853 49.3018C141.627 49.5976 142.324 49.5345 142.857 49.4688C145.434 49.1531 147.78 48.3454 148.751 48.0064C150.442 47.4156 151.288 47.1198 151.801 46.9012C154.628 45.698 156.57 44.2788 157.756 43.4005C163.941 38.8211 167.399 33.705 167.399 33.705C172.847 25.6424 173.501 17.4767 173.248 13.1259L173.247 13.1267ZM162.085 16.2669C161.924 17.6878 161.382 21.3771 158.471 26.9029C156.699 30.2682 153.718 34.9415 149.2 37.4825C148.37 37.9495 147.272 38.4962 146.458 38.0317C145.403 37.431 145.327 35.617 145.3 32.2492C145.264 27.797 145.245 25.5709 145.3 24.6968C145.47 21.9812 145.626 18.0949 145.526 13.2123C145.526 13.2123 145.413 11.7415 147.363 10.412C149.313 9.08253 157.841 6.09113 161.604 10.412C162.757 11.7366 162.401 13.4849 162.085 16.2677L162.085 16.2669Z" fill="#AA5AFC"/>
<path d="M179.085 7.08378C179.343 15.6115 179.506 24.1401 179.574 32.6687C179.606 36.745 179.616 40.8222 179.604 44.9003C179.568 45.0312 179.498 45.2264 179.356 45.4277C179.057 45.8483 178.634 46.0193 178.428 46.0986C177.499 46.4559 176.66 46.611 176.057 46.7811C175.484 46.9424 173.53 47.4948 173.319 48.5783C173.247 48.9543 173.349 49.5655 173.36 49.6243C173.405 49.8836 173.45 50.1384 173.602 50.4128C173.826 50.82 174.155 51.0374 174.328 51.1488C175.496 51.9026 177.134 51.956 177.134 51.956C180.653 52.0719 181.727 51.9222 181.727 51.9222C186.377 51.2735 188.702 50.9501 190.829 50.0493C192.697 49.2581 195.189 48.1649 196.044 45.9169C196.221 45.4518 196.73 44.1144 196.074 43.4168C195.729 43.0506 195.195 43.0015 194.876 43.0051C194.876 43.0051 193.433 43.2323 192.723 43.0283C192.013 42.8233 191.486 40.9353 191.486 40.9353C191.061 38.9867 190.543 36.1257 190.294 32.609C190.227 31.6556 190.194 30.8573 190.157 29.4549C190.042 25.1157 189.915 20.2919 190.233 13.8642C190.327 11.9593 190.483 9.47521 190.753 6.56166C190.944 6.38881 191.23 6.13309 191.589 5.83371C192.051 5.44702 192.092 5.43812 192.276 5.27595C192.614 4.97836 193.291 4.38585 193.493 3.49129C193.528 3.33715 193.647 2.7785 193.458 2.22519C193.071 1.09719 191.625 0.647237 190.936 0.442309C186.068 -1.00288 176.888 1.38944 176.122 3.3621C175.891 3.95906 176.016 4.44287 176.016 4.44287C176.164 5.01044 176.637 5.36327 177.094 5.70274C177.606 6.08408 177.829 6.09478 178.477 6.58126C178.746 6.78263 178.953 6.96439 179.085 7.08556V7.08378Z" fill="#AA5AFC"/>
<path d="M202.191 6.97134C202.449 15.3637 202.612 23.7569 202.68 32.1501C202.712 36.1617 202.722 40.1742 202.71 44.1876C202.674 44.3165 202.604 44.5085 202.462 44.7067C202.163 45.1205 201.74 45.2889 201.534 45.3669C200.604 45.7185 199.766 45.8711 199.163 46.0386C198.59 46.1973 196.636 46.741 196.425 47.8072C196.353 48.1772 196.455 48.7788 196.466 48.8366C196.511 49.0918 196.556 49.3426 196.708 49.6126C196.932 50.0134 197.261 50.2273 197.434 50.3369C198.602 51.0787 200.24 51.1313 200.24 51.1313C203.759 51.2453 204.833 51.098 204.833 51.098C209.483 50.4597 211.808 50.1414 213.935 49.2549C215.803 48.4762 218.295 47.4003 219.15 45.188C219.327 44.7303 219.836 43.4142 219.18 42.7276C218.835 42.3672 218.3 42.319 217.982 42.3225C217.982 42.3225 216.539 42.5461 215.829 42.3453C215.119 42.1436 214.592 40.2856 214.592 40.2856C214.167 38.3679 213.649 35.5523 213.4 32.0914C213.333 31.1532 213.3 30.3675 213.263 28.9873C213.148 24.7171 213.021 19.9698 213.339 13.6442C213.433 11.7695 213.588 9.32481 213.859 6.45751C214.05 6.2874 214.336 6.03574 214.695 5.74112C215.157 5.36056 215.198 5.3518 215.382 5.19221C215.72 4.89934 216.397 4.31623 216.599 3.43587C216.633 3.28418 216.753 2.73439 216.564 2.18987C216.177 1.07977 214.731 0.636964 214.042 0.435288C209.173 -0.986965 199.994 1.36738 199.228 3.30873C198.997 3.89622 199.122 4.37235 199.122 4.37235C199.27 4.93091 199.743 5.27814 200.2 5.61222C200.712 5.98751 200.935 5.99803 201.583 6.4768C201.851 6.67496 202.059 6.85384 202.191 6.97309V6.97134Z" fill="#AA5AFC"/>
<path d="M241.754 17.5972C241.754 17.5972 238.367 19.7459 240.686 20.3146C240.686 20.3146 242.967 20.7807 243.953 20.4826C244.94 20.1846 246.314 18.7871 246.314 18.7871C248.046 16.8369 249.278 15.0189 250.128 13.6039C251.57 11.2028 252.305 9.25639 252.949 7.54718C253.86 5.12857 254.297 3.90216 254.128 3.29542C253.66 1.60749 251.601 0.827398 250.808 0.519465C250.434 0.374242 249.651 0.103566 246.107 0.0343757C243.393 -0.0188472 242.037 -0.045459 240.867 0.228259C239.136 0.632753 237.853 1.3832 236.286 2.48035C230.982 6.19151 228.044 9.70195 228.044 9.70195C223.9 14.6562 217.554 22.2405 220.083 26.7462C221.457 29.1952 225.048 30.0141 227.404 30.5509C229.294 30.982 232.804 31.4321 236.626 31.3857C238.239 31.366 240.793 31.2519 241.055 32.0533C241.102 32.1993 241.066 32.3704 240.947 32.5696C240.367 33.5405 238.546 34.957 237.246 35.7531C235.946 36.5491 224.073 43.4833 222.87 45.7833C221.964 47.5176 223.537 48.5532 223.537 48.5532C223.537 48.5532 224.444 49.407 231.192 46.974C237.94 44.5409 246.581 38.1739 249.034 34.8346C251.487 31.4952 255.797 25.8506 250.741 24.688C246.688 23.7558 239.059 25.2058 239.059 25.2058C234.358 26.1729 230.627 25.8468 229.784 24.1679C228.901 22.4093 231.42 19.6235 234.018 16.8057C236.684 13.9164 241.006 9.8753 247.593 6.05161C247.593 6.05161 249.62 5.17191 247.487 9.9597C245.354 14.7482 241.753 17.5957 241.753 17.5957L241.754 17.5972Z" fill="#AA5AFC"/>
<path d="M258.17 0.991539C255.516 8.47103 254.617 14.9252 254.306 19.4177C254.135 21.8798 253.859 27.8267 255.267 35.074C256.07 39.2141 256.782 40.4725 257.06 40.9368C259.896 45.6641 266.314 49.0144 271.919 47.5087C274.74 46.7508 276.717 44.9339 277.491 44.2232C279.605 42.281 280.715 40.1747 281.27 38.897C281.393 38.2266 281.661 36.5183 281.072 36.2432C280.996 36.2079 280.907 36.1961 280.801 36.2129C279.712 36.3845 277.385 37.3729 276.254 38.6186C275.122 39.8643 269.844 43.472 267.872 40.0578C265.899 36.6428 265.003 30.6731 268.078 28.5677C271.152 26.4623 279.243 25.4748 281.229 20.6004C283.214 15.7251 281.784 16.0901 281.784 16.0901C281.334 16.1255 280.639 16.1928 279.799 16.3265C277.593 16.6781 276 17.2341 275.443 17.4217C273.958 17.9238 271.567 18.6094 267.672 19.3546C267.672 19.3546 266.847 19.2184 267.245 16.6697C267.753 13.4187 270.634 11.2695 272.397 10.1121C275.235 8.24896 276.522 8.42308 284.239 5.55897C287.452 4.36707 289.689 3.6033 289.647 2.60991C289.618 1.89746 288.429 1.14631 287.498 0.877144C286.84 0.687044 286.267 0.724896 285.919 0.777047C281.592 1.36922 277.265 1.96054 272.939 2.55271C272.161 2.76804 270.987 2.99179 269.604 2.83365C267.098 2.54682 266.36 1.20267 262.771 0.26647C261.918 0.043566 260.796 -0.185226 259.56 0.233665C258.938 0.443952 258.473 0.756018 258.172 0.992381L258.17 0.991539Z" fill="#AA5AFC"/>
<path d="M324.384 6.15747C319.707 -3.51739 302.993 1.1024 302.993 1.1024C302.993 1.1024 297.791 1.36356 292.623 8.99096C291.873 10.0979 289 14.5479 289.781 19.4237C289.953 20.4965 290.143 21.6854 290.93 22.9954C291.722 24.3132 293.334 26.1148 294.059 26.9248C294.303 27.1979 294.707 27.6417 295.058 28.3415C295.469 29.1609 295.603 29.9238 295.652 30.4334C296.001 35.7026 296.838 39.6823 297.493 41.5898C298.189 43.6151 299.12 45.2111 299.12 45.2111C299.568 45.9775 299.963 46.5297 300.048 46.6449C301.556 48.7043 306.009 50.8115 310.418 50.2602C311.809 50.0861 315.218 49.5433 318.995 45.2503C326.701 36.4904 329.062 15.8332 324.385 6.15832L324.384 6.15747ZM308.793 42.7224C305.496 42.7224 304.472 41.3278 304.517 35.357C304.561 29.3862 305.274 28.4713 304.828 26.0304C304.382 23.5894 305.987 21.9337 305.987 21.9337C305.987 21.9337 307.813 19.1881 305.051 17.8371C305.051 17.8371 302.602 16.8787 303.047 15.048C303.493 13.2173 304.606 7.5085 310.887 7.07238C317.167 6.63626 318.994 14.3072 318.994 19.3187C318.994 24.3303 316.5 42.7215 308.793 42.7215V42.7224Z" fill="#AA5AFC"/>
</svg>
