<?xml version="1.0" encoding="UTF-8"?>
<!DOCTYPE svg PUBLIC "-//W3C//DTD SVG 1.1//EN" "http://www.w3.org/Graphics/SVG/1.1/DTD/svg11.dtd">
<svg xmlns="http://www.w3.org/2000/svg" version="1.1" width="278px" height="178px" style="shape-rendering:geometricPrecision; text-rendering:geometricPrecision; image-rendering:optimizeQuality; fill-rule:evenodd; clip-rule:evenodd" xmlns:xlink="http://www.w3.org/1999/xlink">
<g><path style="opacity:0.996" fill="#fbba56" d="M 58.5,41.5 C 56.2489,44.5955 53.7489,47.5955 51,50.5C 49.2513,49.701 47.918,50.3676 47,52.5C 46.6667,52.1667 46.3333,51.8333 46,51.5C 39.1828,53.5029 32.3495,54.3362 25.5,54C 24.6911,59.4171 24.1911,64.9171 24,70.5C 23.0272,73.1876 21.8605,76.1876 20.5,79.5C 19.596,80.209 19.2627,81.209 19.5,82.5C 14.5,82.5 9.5,82.5 4.5,82.5C 4.38658,56.2925 4.38658,29.6258 4.5,2.5C 18.2179,2.09386 31.8846,2.59386 45.5,4C 52.9595,6.4617 58.1261,11.295 61,18.5C 61.4163,25.203 61.5829,31.703 61.5,38C 59.9443,38.7202 58.9443,39.8868 58.5,41.5 Z M 24.5,18.5 C 28.9387,18.7544 33.272,19.5877 37.5,21C 41.8194,26.579 41.3194,31.7457 36,36.5C 35.6667,36.1667 35.3333,35.8333 35,35.5C 31.5998,36.5396 28.0998,37.2062 24.5,37.5C 24.5,31.1667 24.5,24.8333 24.5,18.5 Z"/></g>
<g><path style="opacity:0.997" fill="#fbba58" d="M 78.5,2.5 C 81.5,2.5 84.5,2.5 87.5,2.5C 87.5,19.1667 87.5,35.8333 87.5,52.5C 83.713,53.1856 80.5463,52.1856 78,49.5C 76.6569,50.2135 75.3236,49.8802 74,48.5C 73.6667,48.8333 73.3333,49.1667 73,49.5C 70.9307,48.7362 68.764,48.2362 66.5,48C 66.6191,46.8552 66.9524,45.6885 67.5,44.5C 69.4819,31.2076 70.1486,17.5409 69.5,3.5C 72.7131,3.81 75.7131,3.47667 78.5,2.5 Z"/></g>
<g><path style="opacity:0.995" fill="#faba56" d="M 110.5,76.5 C 111.819,57.5646 111.819,38.5646 110.5,19.5C 109.893,19.6236 109.56,19.9569 109.5,20.5C 102.876,21.1437 96.543,20.3103 90.5,18C 91.038,13.6307 91.2047,8.79735 91,3.5C 109.76,2.34118 128.593,2.17451 147.5,3C 148.475,8.74123 148.808,14.5746 148.5,20.5C 142.5,20.5 136.5,20.5 130.5,20.5C 130.476,40.5418 130.476,60.3751 130.5,80C 130.043,80.414 129.709,80.914 129.5,81.5C 123.202,82.4963 116.868,82.8297 110.5,82.5C 110.5,80.5 110.5,78.5 110.5,76.5 Z"/></g>
<g><path style="opacity:0.925" fill="#dba146" d="M 78.5,2.5 C 75.7131,3.47667 72.7131,3.81 69.5,3.5C 70.1486,17.5409 69.4819,31.2076 67.5,44.5C 66.5161,31.2438 66.1827,17.7438 66.5,4C 70.2968,2.57611 74.2968,2.07611 78.5,2.5 Z"/></g>
<g><path style="opacity:0.411" fill="#d79c43" d="M 110.5,76.5 C 109.503,58.0075 109.17,39.3408 109.5,20.5C 109.56,19.9569 109.893,19.6236 110.5,19.5C 111.819,38.5646 111.819,57.5646 110.5,76.5 Z"/></g>
<g><path style="opacity:0.012" fill="#a9aa54" d="M 58.5,41.5 C 59.8333,42.1667 59.8333,42.1667 58.5,41.5 Z"/></g>
<g><path style="opacity:0.992" fill="#f98e4b" d="M 65.5,130.5 C 65.1583,129.662 64.4916,129.328 63.5,129.5C 58.7471,126.148 53.0804,123.648 46.5,122C 46.8333,121.667 47.1667,121.333 47.5,121C 37.7238,116.557 30.7238,109.557 26.5,100C 26.8333,99.6667 27.1667,99.3333 27.5,99C 26.8333,97 26.1667,95 25.5,93C 26.1334,85.2227 28.6334,78.056 33,71.5C 50.0041,55.7259 70.1707,54.2259 93.5,67C 95.3266,67.8993 96.66,69.2326 97.5,71C 94.4176,77.3485 91.0843,83.5151 87.5,89.5C 86.8333,89.8333 86.1667,90.1667 85.5,90.5C 77.014,84.554 67.3473,82.7206 56.5,85C 50.7801,90.5233 51.4468,95.19 58.5,99C 68.6062,103.219 78.2729,108.219 87.5,114C 101.928,126.794 104.261,141.128 94.5,157C 94.8333,157.333 95.1667,157.667 95.5,158C 92.3333,160.5 89.5,163.333 87,166.5C 86.6667,166.167 86.3333,165.833 86,165.5C 83.629,167.179 81.2957,168.846 79,170.5C 76.5467,170.059 74.0467,170.559 71.5,172C 63.1295,172.434 54.9629,172.601 47,172.5C 39.619,170.483 32.619,167.483 26,163.5C 25.6667,163.833 25.3333,164.167 25,164.5C 22.1832,161.683 19.3498,158.85 16.5,156C 20.5211,150.417 24.1877,145.084 27.5,140C 27.1667,139.667 26.8333,139.333 26.5,139C 27.8491,138.228 28.6824,137.061 29,135.5C 36.0996,139.89 43.7662,143.89 52,147.5C 56.767,147.881 61.6003,147.214 66.5,145.5C 72.8868,139.878 72.5534,134.878 65.5,130.5 Z"/></g>
<g><path style="opacity:0.004" fill="#000000" d="M 20.5,79.5 C 21.8333,80.1667 21.8333,80.1667 20.5,79.5 Z"/></g>
<g><path style="opacity:0.997" fill="#fb904c" d="M 113.5,161.5 C 113.5,144.167 113.5,126.833 113.5,109.5C 111.265,109.205 109.265,109.539 107.5,110.5C 103.833,110.5 100.167,110.5 96.5,110.5C 96.5,105.5 96.5,100.5 96.5,95.5C 111.837,95.3334 127.17,95.5001 142.5,96C 143.469,100.737 143.803,105.57 143.5,110.5C 138.5,110.5 133.5,110.5 128.5,110.5C 128.667,127.17 128.5,143.837 128,160.5C 127.667,161.167 127.333,161.833 127,162.5C 122.558,161.928 118.058,161.595 113.5,161.5 Z"/></g>
<g><path style="opacity:0.991" fill="#f98d4a" d="M 208.5,151.5 C 207.5,151.833 206.833,152.5 206.5,153.5C 205.5,153.833 204.833,154.5 204.5,155.5C 202.564,156.429 200.897,157.763 199.5,159.5C 188.839,163.116 178.506,163.449 168.5,160.5C 168.672,159.508 168.338,158.842 167.5,158.5C 165.28,156.782 162.947,155.948 160.5,156C 161.566,154.841 161.233,154.008 159.5,153.5C 155.956,150.619 153.623,146.952 152.5,142.5C 152.5,141.167 151.833,140.5 150.5,140.5C 150.611,139.883 150.944,139.383 151.5,139C 150.692,134.964 149.692,131.297 148.5,128C 149.779,123.168 151.113,118.335 152.5,113.5C 154.758,111.323 156.258,108.657 157,105.5C 157.333,105.833 157.667,106.167 158,106.5C 169.498,93.0533 183.998,90.8867 201.5,100C 214.863,110.453 219.53,123.787 215.5,140C 213.08,143.726 210.747,147.559 208.5,151.5 Z M 172.5,115.5 C 172.833,114.5 173.5,113.833 174.5,113.5C 188.591,107.104 196.591,112.104 198.5,128.5C 198.674,130.693 198.007,132.527 196.5,134C 196.833,134.333 197.167,134.667 197.5,135C 196.476,137.548 195.31,140.048 194,142.5C 193.667,142.167 193.333,141.833 193,141.5C 192.667,142.5 192.333,143.5 192,144.5C 190.251,143.701 188.918,144.368 188,146.5C 185.364,146.455 182.53,146.288 179.5,146C 178.24,144.887 177.073,144.72 176,145.5C 168.46,139.58 166.294,132.413 169.5,124C 169.167,123.667 168.833,123.333 168.5,123C 169.467,120.228 170.801,117.728 172.5,115.5 Z"/></g>
<g><path style="opacity:0.992" fill="#f98d4a" d="M 226.5,95.5 C 237.564,95.0939 248.564,95.5939 259.5,97C 271.223,101.611 275.723,110.111 273,122.5C 271.801,126.629 269.801,130.296 267,133.5C 266.667,133.167 266.333,132.833 266,132.5C 265.355,133.646 264.522,134.646 263.5,135.5C 261.219,136.277 259.052,137.277 257,138.5C 252.712,138.381 248.212,138.381 243.5,138.5C 243.666,146.174 243.5,153.841 243,161.5C 241.984,160.366 241.317,160.699 241,162.5C 236.333,161.167 231.667,161.167 227,162.5C 226.5,140.169 226.333,117.836 226.5,95.5 Z M 253.5,111.5 C 254.695,111.866 255.361,112.699 255.5,114C 255.483,116.381 254.817,118.881 253.5,121.5C 249.592,124.248 245.926,124.748 242.5,123C 243.139,118.879 243.805,114.713 244.5,110.5C 245.293,110.069 246.127,109.735 247,109.5C 249.323,110.892 251.49,111.558 253.5,111.5 Z"/></g>
<g><path style="opacity:0.625" fill="#de7c3c" d="M 107.5,110.5 C 109.265,109.539 111.265,109.205 113.5,109.5C 113.5,126.833 113.5,144.167 113.5,161.5C 113.565,161.938 113.399,162.272 113,162.5C 112.5,161.333 111.667,160.5 110.5,160C 111.257,145.302 111.59,129.635 111.5,113C 110.529,111.519 109.196,110.685 107.5,110.5 Z"/></g>
<g><path style="opacity:0.004" fill="#000000" d="M 63.5,129.5 C 64.4916,129.328 65.1583,129.662 65.5,130.5C 64.6726,131.439 64.0059,131.105 63.5,129.5 Z"/></g>
<g><path style="opacity:0.008" fill="#4c4b0e" d="M 150.5,140.5 C 151.833,140.5 152.5,141.167 152.5,142.5C 151.167,142.5 150.5,141.833 150.5,140.5 Z"/></g>
<g><path style="opacity:0.004" fill="#000000" d="M 208.5,151.5 C 209.833,152.167 209.833,152.167 208.5,151.5 Z"/></g>
<g><path style="opacity:0.004" fill="#000000" d="M 159.5,153.5 C 158.833,154.167 158.833,154.167 159.5,153.5 Z"/></g>
<g><path style="opacity:0.02" fill="#cb6632" d="M 206.5,153.5 C 207.833,154.167 207.833,154.167 206.5,153.5 Z"/></g>
<g><path style="opacity:0.02" fill="#cb6632" d="M 204.5,155.5 C 205.833,156.167 205.833,156.167 204.5,155.5 Z"/></g>
<g><path style="opacity:0.004" fill="#000000" d="M 167.5,158.5 C 168.338,158.842 168.672,159.508 168.5,160.5C 166.302,160.591 165.969,159.925 167.5,158.5 Z"/></g>
</svg>
