<?xml version="1.0" encoding="UTF-8"?>
<!DOCTYPE svg PUBLIC "-//W3C//DTD SVG 1.1//EN" "http://www.w3.org/Graphics/SVG/1.1/DTD/svg11.dtd">
<svg xmlns="http://www.w3.org/2000/svg" version="1.1" width="500px" height="500px" style="shape-rendering:geometricPrecision; text-rendering:geometricPrecision; image-rendering:optimizeQuality; fill-rule:evenodd; clip-rule:evenodd" xmlns:xlink="http://www.w3.org/1999/xlink">
<g><path style="opacity:0.996" fill="#fbba56" d="M 192.5,177.5 C 190.249,180.595 187.749,183.595 185,186.5C 183.251,185.701 181.918,186.368 181,188.5C 180.667,188.167 180.333,187.833 180,187.5C 173.183,189.503 166.349,190.336 159.5,190C 158.691,195.417 158.191,200.917 158,206.5C 157.027,209.188 155.861,212.188 154.5,215.5C 153.596,216.209 153.263,217.209 153.5,218.5C 148.5,218.5 143.5,218.5 138.5,218.5C 138.387,192.293 138.387,165.626 138.5,138.5C 152.218,138.094 165.885,138.594 179.5,140C 186.959,142.462 192.126,147.295 195,154.5C 195.416,161.203 195.583,167.703 195.5,174C 193.944,174.72 192.944,175.887 192.5,177.5 Z M 158.5,154.5 C 162.939,154.754 167.272,155.588 171.5,157C 175.819,162.579 175.319,167.746 170,172.5C 169.667,172.167 169.333,171.833 169,171.5C 165.6,172.54 162.1,173.206 158.5,173.5C 158.5,167.167 158.5,160.833 158.5,154.5 Z"/></g>
<g><path style="opacity:0.997" fill="#fbba58" d="M 212.5,138.5 C 215.5,138.5 218.5,138.5 221.5,138.5C 221.5,155.167 221.5,171.833 221.5,188.5C 217.713,189.186 214.546,188.186 212,185.5C 210.657,186.214 209.324,185.88 208,184.5C 207.667,184.833 207.333,185.167 207,185.5C 204.931,184.736 202.764,184.236 200.5,184C 200.619,182.855 200.952,181.688 201.5,180.5C 203.482,167.208 204.149,153.541 203.5,139.5C 206.713,139.81 209.713,139.477 212.5,138.5 Z"/></g>
<g><path style="opacity:0.995" fill="#faba56" d="M 244.5,212.5 C 245.819,193.565 245.819,174.565 244.5,155.5C 243.893,155.624 243.56,155.957 243.5,156.5C 236.876,157.144 230.543,156.31 224.5,154C 225.038,149.631 225.205,144.797 225,139.5C 243.76,138.341 262.593,138.175 281.5,139C 282.475,144.741 282.808,150.575 282.5,156.5C 276.5,156.5 270.5,156.5 264.5,156.5C 264.476,176.542 264.476,196.375 264.5,216C 264.043,216.414 263.709,216.914 263.5,217.5C 257.202,218.496 250.868,218.83 244.5,218.5C 244.5,216.5 244.5,214.5 244.5,212.5 Z"/></g>
<g><path style="opacity:0.925" fill="#dba146" d="M 212.5,138.5 C 209.713,139.477 206.713,139.81 203.5,139.5C 204.149,153.541 203.482,167.208 201.5,180.5C 200.516,167.244 200.183,153.744 200.5,140C 204.297,138.576 208.297,138.076 212.5,138.5 Z"/></g>
<g><path style="opacity:0.411" fill="#d79c43" d="M 244.5,212.5 C 243.503,194.007 243.17,175.341 243.5,156.5C 243.56,155.957 243.893,155.624 244.5,155.5C 245.819,174.565 245.819,193.565 244.5,212.5 Z"/></g>
<g><path style="opacity:0.012" fill="#a9aa54" d="M 192.5,177.5 C 193.833,178.167 193.833,178.167 192.5,177.5 Z"/></g>
<g><path style="opacity:0.992" fill="#f98e4b" d="M 199.5,266.5 C 199.158,265.662 198.492,265.328 197.5,265.5C 192.747,262.148 187.08,259.648 180.5,258C 180.833,257.667 181.167,257.333 181.5,257C 171.724,252.557 164.724,245.557 160.5,236C 160.833,235.667 161.167,235.333 161.5,235C 160.833,233 160.167,231 159.5,229C 160.133,221.223 162.633,214.056 167,207.5C 184.004,191.726 204.171,190.226 227.5,203C 229.327,203.899 230.66,205.233 231.5,207C 228.418,213.348 225.084,219.515 221.5,225.5C 220.833,225.833 220.167,226.167 219.5,226.5C 211.014,220.554 201.347,218.721 190.5,221C 184.78,226.523 185.447,231.19 192.5,235C 202.606,239.219 212.273,244.219 221.5,250C 235.928,262.794 238.261,277.128 228.5,293C 228.833,293.333 229.167,293.667 229.5,294C 226.333,296.5 223.5,299.333 221,302.5C 220.667,302.167 220.333,301.833 220,301.5C 217.629,303.179 215.296,304.846 213,306.5C 210.547,306.059 208.047,306.559 205.5,308C 197.13,308.434 188.963,308.601 181,308.5C 173.619,306.483 166.619,303.483 160,299.5C 159.667,299.833 159.333,300.167 159,300.5C 156.183,297.683 153.35,294.85 150.5,292C 154.521,286.417 158.188,281.084 161.5,276C 161.167,275.667 160.833,275.333 160.5,275C 161.849,274.228 162.682,273.061 163,271.5C 170.1,275.89 177.766,279.89 186,283.5C 190.767,283.881 195.6,283.214 200.5,281.5C 206.887,275.878 206.553,270.878 199.5,266.5 Z"/></g>
<g><path style="opacity:0.004" fill="#000000" d="M 154.5,215.5 C 155.833,216.167 155.833,216.167 154.5,215.5 Z"/></g>
<g><path style="opacity:0.997" fill="#fb904c" d="M 247.5,297.5 C 247.5,280.167 247.5,262.833 247.5,245.5C 245.265,245.205 243.265,245.539 241.5,246.5C 237.833,246.5 234.167,246.5 230.5,246.5C 230.5,241.5 230.5,236.5 230.5,231.5C 245.837,231.333 261.17,231.5 276.5,232C 277.469,236.737 277.803,241.57 277.5,246.5C 272.5,246.5 267.5,246.5 262.5,246.5C 262.667,263.17 262.5,279.837 262,296.5C 261.667,297.167 261.333,297.833 261,298.5C 256.558,297.928 252.058,297.595 247.5,297.5 Z"/></g>
<g><path style="opacity:0.991" fill="#f98d4a" d="M 342.5,287.5 C 341.5,287.833 340.833,288.5 340.5,289.5C 339.5,289.833 338.833,290.5 338.5,291.5C 336.564,292.429 334.897,293.763 333.5,295.5C 322.839,299.116 312.506,299.449 302.5,296.5C 302.672,295.508 302.338,294.842 301.5,294.5C 299.28,292.782 296.947,291.948 294.5,292C 295.566,290.841 295.233,290.008 293.5,289.5C 289.956,286.619 287.623,282.952 286.5,278.5C 286.5,277.167 285.833,276.5 284.5,276.5C 284.611,275.883 284.944,275.383 285.5,275C 284.692,270.964 283.692,267.297 282.5,264C 283.779,259.168 285.113,254.335 286.5,249.5C 288.758,247.323 290.258,244.657 291,241.5C 291.333,241.833 291.667,242.167 292,242.5C 303.498,229.053 317.998,226.887 335.5,236C 348.863,246.453 353.53,259.787 349.5,276C 347.08,279.726 344.747,283.559 342.5,287.5 Z M 306.5,251.5 C 306.833,250.5 307.5,249.833 308.5,249.5C 322.591,243.104 330.591,248.104 332.5,264.5C 332.674,266.693 332.007,268.527 330.5,270C 330.833,270.333 331.167,270.667 331.5,271C 330.476,273.548 329.31,276.048 328,278.5C 327.667,278.167 327.333,277.833 327,277.5C 326.667,278.5 326.333,279.5 326,280.5C 324.251,279.701 322.918,280.368 322,282.5C 319.364,282.455 316.53,282.288 313.5,282C 312.24,280.887 311.073,280.72 310,281.5C 302.46,275.58 300.294,268.413 303.5,260C 303.167,259.667 302.833,259.333 302.5,259C 303.467,256.228 304.801,253.728 306.5,251.5 Z"/></g>
<g><path style="opacity:0.992" fill="#f98d4a" d="M 360.5,231.5 C 371.564,231.094 382.564,231.594 393.5,233C 405.223,237.611 409.723,246.111 407,258.5C 405.801,262.629 403.801,266.296 401,269.5C 400.667,269.167 400.333,268.833 400,268.5C 399.355,269.646 398.522,270.646 397.5,271.5C 395.219,272.277 393.052,273.277 391,274.5C 386.712,274.381 382.212,274.381 377.5,274.5C 377.666,282.174 377.5,289.841 377,297.5C 375.984,296.366 375.317,296.699 375,298.5C 370.333,297.167 365.667,297.167 361,298.5C 360.5,276.169 360.333,253.836 360.5,231.5 Z M 387.5,247.5 C 388.695,247.866 389.361,248.699 389.5,250C 389.483,252.381 388.817,254.881 387.5,257.5C 383.592,260.248 379.926,260.748 376.5,259C 377.139,254.879 377.805,250.713 378.5,246.5C 379.293,246.069 380.127,245.735 381,245.5C 383.323,246.892 385.49,247.558 387.5,247.5 Z"/></g>
<g><path style="opacity:0.625" fill="#de7c3c" d="M 241.5,246.5 C 243.265,245.539 245.265,245.205 247.5,245.5C 247.5,262.833 247.5,280.167 247.5,297.5C 247.565,297.938 247.399,298.272 247,298.5C 246.5,297.333 245.667,296.5 244.5,296C 245.257,281.302 245.59,265.635 245.5,249C 244.529,247.519 243.196,246.685 241.5,246.5 Z"/></g>
<g><path style="opacity:0.004" fill="#000000" d="M 197.5,265.5 C 198.492,265.328 199.158,265.662 199.5,266.5C 198.673,267.439 198.006,267.105 197.5,265.5 Z"/></g>
<g><path style="opacity:0.008" fill="#4c4b0e" d="M 284.5,276.5 C 285.833,276.5 286.5,277.167 286.5,278.5C 285.167,278.5 284.5,277.833 284.5,276.5 Z"/></g>
<g><path style="opacity:0.004" fill="#000000" d="M 342.5,287.5 C 343.833,288.167 343.833,288.167 342.5,287.5 Z"/></g>
<g><path style="opacity:0.004" fill="#000000" d="M 293.5,289.5 C 292.833,290.167 292.833,290.167 293.5,289.5 Z"/></g>
<g><path style="opacity:0.02" fill="#cb6632" d="M 340.5,289.5 C 341.833,290.167 341.833,290.167 340.5,289.5 Z"/></g>
<g><path style="opacity:0.02" fill="#cb6632" d="M 338.5,291.5 C 339.833,292.167 339.833,292.167 338.5,291.5 Z"/></g>
<g><path style="opacity:0.004" fill="#000000" d="M 301.5,294.5 C 302.338,294.842 302.672,295.508 302.5,296.5C 300.302,296.591 299.969,295.925 301.5,294.5 Z"/></g>
</svg>
