<svg width="21" height="26" viewBox="0 0 21 26" fill="none" xmlns="http://www.w3.org/2000/svg">
<path d="M20.2453 8.91873C18.533 9.97683 17.4754 11.7907 17.4754 13.8061C17.4754 16.0735 18.8352 18.1393 20.9 18.9959C20.4971 20.3059 19.8928 21.5152 19.1373 22.6236C18.0294 24.1856 16.8711 25.7979 15.1588 25.7979C13.4465 25.7979 12.9429 24.7902 10.9284 24.7902C8.96434 24.7902 8.25928 25.8483 6.64771 25.8483C5.03614 25.8483 3.92819 24.3871 2.66916 22.5733C1.00723 20.054 0.0503614 17.1316 0 14.0581C0 9.06989 3.22313 6.39944 6.44626 6.39944C8.15855 6.39944 9.56867 7.50793 10.6263 7.50793C11.6335 7.50793 13.2451 6.34906 15.1588 6.34906C17.1733 6.29867 19.087 7.256 20.2453 8.91873ZM14.2523 4.23286C15.1084 3.22514 15.5617 1.9655 15.612 0.655469C15.612 0.504311 15.612 0.302769 15.5617 0.151611C14.1012 0.302769 12.7414 1.00817 11.7846 2.11665C10.9284 3.07398 10.4248 4.28324 10.3745 5.59327C10.3745 5.74443 10.3745 5.89558 10.4248 6.04674C10.5255 6.04674 10.6766 6.09713 10.7773 6.09713C12.1371 5.99636 13.3961 5.29096 14.2523 4.23286Z" fill="#19191B"/>
</svg>
