<svg width="31" height="31" viewBox="0 0 31 31" fill="none" xmlns="http://www.w3.org/2000/svg">
<g clip-path="url(#clip0_250_8067)">
<path d="M16.2088 4.00006C17.0725 5.09842 17.8892 6.14046 19.5837 5.30495C20.3957 4.90597 21.02 5.4974 21.1937 6.3423C21.4471 7.5674 21.9494 8.37475 23.3716 8.51557C24.2259 8.60006 24.6014 9.36046 24.2776 10.2054C23.8129 11.407 23.9208 12.327 25.0473 13.1625C25.8218 13.7399 25.6106 14.5988 24.9206 15.1809C24.0006 15.9507 23.6486 16.7533 24.1602 17.9409C24.5357 18.8139 24.0851 19.5133 23.1557 19.6917C21.9071 19.9358 21.1467 20.4662 20.9871 21.8603C20.8745 22.846 19.978 23.015 19.1565 22.7333C18.03 22.3437 17.171 22.4188 16.3965 23.475C15.838 24.2354 15.0071 24.179 14.3829 23.4609C13.5567 22.5033 12.7212 22.0809 11.4257 22.6864C10.6184 23.0666 9.97531 22.4986 9.80633 21.649C9.55755 20.4192 9.03653 19.6166 7.63306 19.4711C6.75531 19.3819 6.41265 18.6262 6.72245 17.786C7.16837 16.5937 7.10735 15.669 5.95735 14.8288C5.18755 14.2656 5.37531 13.4113 6.08408 12.8152C6.9947 12.0501 7.34204 11.2427 6.8398 10.0458C6.44082 9.1023 6.98061 8.42638 7.94755 8.25271C9.12102 8.04148 9.85327 7.56271 9.96592 6.24373C10.041 5.36597 10.7873 4.87781 11.59 5.21108C13.1765 5.86822 14.1904 5.27679 15.0259 3.99536H16.1994L16.2088 4.00006ZM21.6537 13.9792C21.6443 10.595 18.9218 7.84904 15.5516 7.82087C12.1439 7.79271 9.34633 10.5856 9.35572 14.0074C9.3698 17.3823 12.1016 20.1423 15.4578 20.1658C18.8608 20.1892 21.6584 17.3964 21.649 13.9792H21.6537Z" fill="white"/>
<path d="M22.7896 27C21.7006 26.0049 20.6069 25.0098 19.2833 23.8035C21.0153 23.4749 21.7335 22.7239 21.8931 21.3674C21.9916 20.5506 23.198 20.208 23.8082 20.7712C24.5827 21.4847 25.329 22.2357 26.0424 23.0102C26.2208 23.2074 26.2443 23.5453 26.3429 23.8176C26.0378 23.9161 25.7373 24.0288 25.4229 24.1039C25.3196 24.1274 25.1975 24.0616 25.0802 24.0429C23.3575 23.7706 23.3341 23.8176 23.4655 25.5731C23.5031 26.0425 23.3294 26.5259 23.2543 27.0047H22.7849L22.7896 27Z" fill="white"/>
<path d="M7.7551 27C7.70817 26.3288 7.55327 25.6482 7.63776 24.9957C7.75041 24.118 7.45939 23.827 6.62857 23.9537C6.35633 23.9959 6.08408 24.071 5.81653 24.0476C5.43163 24.0147 5.05143 23.9021 4.67123 23.827C4.8449 23.4702 4.95286 23.0525 5.21102 22.7661C5.80714 22.0949 6.46429 21.48 7.10735 20.8557C7.98041 20.0108 8.63755 20.161 8.91449 21.3439C9.23368 22.7051 9.90021 23.5923 11.4773 23.5453C11.5243 23.6392 11.5665 23.7331 11.6135 23.827C10.4869 24.8878 9.35572 25.9486 8.22919 27.0094H7.7598L7.7551 27Z" fill="white"/>
<path d="M15.5516 18.8139C18.2271 18.7998 20.3863 16.6124 20.3582 13.9463C20.33 11.2802 18.138 9.13979 15.4578 9.15857C12.7869 9.17735 10.6278 11.3741 10.6512 14.0402C10.6794 16.7157 12.848 18.828 15.5516 18.8139Z" fill="white"/>
<path d="M15.5516 18.8139C12.848 18.828 10.6794 16.7157 10.6512 14.0402C10.6231 11.3788 12.7869 9.17735 15.4578 9.15857C18.138 9.13979 20.3253 11.2802 20.3582 13.9463C20.3863 16.6124 18.2271 18.7998 15.5516 18.8139ZM18.6496 13.2469C16.7673 13.5192 15.9271 12.6133 15.4671 10.9563C15.1714 12.801 14.1106 13.4018 12.4208 13.2329C12.9747 13.8618 13.7351 14.2233 13.9182 14.7771C14.1059 15.3545 13.7304 16.1102 13.599 16.7908C13.6647 16.8753 13.7304 16.9598 13.7961 17.0443C14.9602 15.6173 16.1337 15.8192 17.4996 16.9786C16.6735 15.2982 17.049 14.1482 18.6543 13.2469H18.6496Z" fill="white"/>
</g>
<defs>
<clipPath id="clip0_250_8067">
<rect width="23" height="23" fill="white" transform="translate(4 4)"/>
</clipPath>
</defs>
</svg>
