<svg width="22" height="22" viewBox="0 0 22 22" fill="none" xmlns="http://www.w3.org/2000/svg">
<path d="M17.9598 10.7975C17.9393 10.7481 17.4453 9.57375 16.3468 8.39687C14.8833 6.82875 13.0347 6 11 6C8.96533 6 7.11675 6.82875 5.65316 8.39687C4.55474 9.57375 4.05833 10.75 4.04024 10.7975C4.01371 10.8614 4 10.9306 4 11.0006C4 11.0706 4.01371 11.1398 4.04024 11.2037C4.06066 11.2531 4.55474 12.4269 5.65316 13.6038C7.11675 15.1713 8.96533 16 11 16C13.0347 16 14.8833 15.1713 16.3468 13.6038C17.4453 12.4269 17.9393 11.2531 17.9598 11.2037C17.9863 11.1398 18 11.0706 18 11.0006C18 10.9306 17.9863 10.8614 17.9598 10.7975ZM11 15C9.2045 15 7.63591 14.3006 6.33741 12.9219C5.80462 12.3542 5.35134 11.7068 4.99166 11C5.35124 10.2931 5.80454 9.64574 6.33741 9.07812C7.63591 7.69938 9.2045 7 11 7C12.7955 7 14.3641 7.69938 15.6626 9.07812C16.1964 9.6456 16.6507 10.2929 17.0113 11C16.5907 11.8413 14.7584 15 11 15ZM11 8C10.4462 8 9.90486 8.17595 9.4444 8.50559C8.98394 8.83524 8.62506 9.30377 8.41314 9.85195C8.20121 10.4001 8.14576 11.0033 8.2538 11.5853C8.36184 12.1672 8.62851 12.7018 9.0201 13.1213C9.41169 13.5409 9.9106 13.8266 10.4537 13.9424C10.9969 14.0581 11.5599 13.9987 12.0715 13.7716C12.5831 13.5446 13.0204 13.1601 13.3281 12.6667C13.6358 12.1734 13.8 11.5933 13.8 11C13.7992 10.2046 13.504 9.44202 12.979 8.87959C12.4541 8.31716 11.7424 8.00083 11 8ZM11 13C10.6308 13 10.2699 12.8827 9.96294 12.6629C9.65596 12.4432 9.41671 12.1308 9.27542 11.7654C9.13414 11.3999 9.09717 10.9978 9.1692 10.6098C9.24123 10.2219 9.41901 9.86549 9.68007 9.58579C9.94112 9.30608 10.2737 9.1156 10.6358 9.03843C10.9979 8.96126 11.3733 9.00087 11.7143 9.15224C12.0554 9.30362 12.347 9.55996 12.5521 9.88886C12.7572 10.2178 12.8667 10.6044 12.8667 11C12.8667 11.5304 12.67 12.0391 12.3199 12.4142C11.9699 12.7893 11.4951 13 11 13Z" fill="white"/>
</svg>
