<svg width="22" height="22" viewBox="0 0 22 22" fill="none" xmlns="http://www.w3.org/2000/svg">
<path d="M17.8739 10.7775C16.4087 8.05891 13.8391 6.41382 10.9957 6.41382C10.2215 6.41564 9.45248 6.54084 8.71741 6.78473L9.41741 7.49164C9.93299 7.3579 10.4631 7.28901 10.9957 7.28655C13.4435 7.28655 15.6696 8.65673 16.9957 10.9651C16.5092 11.8215 15.8643 12.5768 15.0957 13.1905L15.7131 13.8102C16.6027 13.0899 17.3415 12.2001 17.887 11.192L18 10.9825L17.8739 10.7775Z" fill="white"/>
<path d="M5.12579 5.28883L7.20343 7.36647C5.89019 8.21202 4.81689 9.38158 4.08697 10.7624L3.96585 10.9814L4.08697 11.205C5.65684 14.1071 8.40995 15.8634 11.4565 15.8634C12.6457 15.8631 13.8193 15.594 14.8898 15.0761L17.219 17.4053L18.0342 16.7065L5.92237 4.59473L5.12579 5.28883ZM9.66771 9.83075L12.7655 12.9286C12.4155 13.1452 12.0126 13.2613 11.6009 13.264C11.3018 13.264 11.0057 13.2048 10.7295 13.09C10.4534 12.9751 10.2027 12.8067 9.99182 12.5946C9.78097 12.3824 9.61416 12.1307 9.50097 11.8538C9.38779 11.577 9.33047 11.2805 9.33231 10.9814C9.33756 10.5745 9.45351 10.1767 9.66771 9.83075ZM8.99225 9.15529C8.55643 9.76991 8.35215 10.5189 8.41559 11.2697C8.47904 12.0205 8.8061 12.7246 9.33888 13.2574C9.87166 13.7902 10.5758 14.1173 11.3266 14.1807C12.0774 14.2441 12.8264 14.0399 13.441 13.604L14.1863 14.3494C13.3235 14.7182 12.3949 14.9084 11.4565 14.9084C8.83386 14.9084 6.44877 13.4457 5.02796 10.9814C5.70981 9.77402 6.69181 8.76314 7.87889 8.04659L8.99225 9.15529Z" fill="white"/>
<path d="M13.9174 12.0297C14.0423 11.6949 14.1056 11.34 14.1044 10.9825C14.1044 10.1886 13.7901 9.42716 13.2308 8.86578C12.6714 8.30439 11.9128 7.98901 11.1217 7.98901C10.7699 7.98943 10.4209 8.05297 10.0913 8.17665L10.7913 8.90101C10.8977 8.88393 11.0053 8.87517 11.113 8.87483C11.6724 8.87366 12.2094 9.09465 12.607 9.48953C13.0045 9.88442 13.2302 10.4211 13.2348 10.9825C13.2344 11.0906 13.2257 11.1986 13.2087 11.3054L13.9174 12.0297Z" fill="white"/>
</svg>
