<svg width="24" height="25" viewBox="0 0 24 25" fill="none" xmlns="http://www.w3.org/2000/svg">
<path d="M21.25 12.9848H8.895M4.534 12.9848H2.75M4.534 12.9848C4.534 12.4066 4.76368 11.8521 5.17251 11.4433C5.58134 11.0344 6.13583 10.8048 6.714 10.8048C7.29217 10.8048 7.84666 11.0344 8.25549 11.4433C8.66432 11.8521 8.894 12.4066 8.894 12.9848C8.894 13.5629 8.66432 14.1174 8.25549 14.5262C7.84666 14.9351 7.29217 15.1648 6.714 15.1648C6.13583 15.1648 5.58134 14.9351 5.17251 14.5262C4.76368 14.1174 4.534 13.5629 4.534 12.9848ZM21.25 19.5918H15.502M15.502 19.5918C15.502 20.1701 15.2718 20.7252 14.8628 21.1341C14.4539 21.543 13.8993 21.7728 13.321 21.7728C12.7428 21.7728 12.1883 21.5421 11.7795 21.1332C11.3707 20.7244 11.141 20.1699 11.141 19.5918M15.502 19.5918C15.502 19.0134 15.2718 18.4593 14.8628 18.0504C14.4539 17.6415 13.8993 17.4118 13.321 17.4118C12.7428 17.4118 12.1883 17.6414 11.7795 18.0503C11.3707 18.4591 11.141 19.0136 11.141 19.5918M11.141 19.5918H2.75M21.25 6.37775H18.145M13.784 6.37775H2.75M13.784 6.37775C13.784 5.79958 14.0137 5.24509 14.4225 4.83626C14.8313 4.42743 15.3858 4.19775 15.964 4.19775C16.2503 4.19775 16.5338 4.25414 16.7983 4.3637C17.0627 4.47325 17.3031 4.63383 17.5055 4.83626C17.7079 5.03869 17.8685 5.27901 17.9781 5.5435C18.0876 5.80799 18.144 6.09147 18.144 6.37775C18.144 6.66404 18.0876 6.94751 17.9781 7.212C17.8685 7.47649 17.7079 7.71681 17.5055 7.91925C17.3031 8.12168 17.0627 8.28226 16.7983 8.39181C16.5338 8.50137 16.2503 8.55775 15.964 8.55775C15.3858 8.55775 14.8313 8.32808 14.4225 7.91925C14.0137 7.51042 13.784 6.95593 13.784 6.37775Z" stroke="white" stroke-width="1.5" stroke-miterlimit="10" stroke-linecap="round"/>
</svg>
