<svg width="25" height="25" viewBox="0 0 25 25" fill="none" xmlns="http://www.w3.org/2000/svg">
<path d="M23.3555 12.7C23.3555 11.92 23.2855 11.17 23.1555 10.45H12.7955V14.705H18.7155C18.4605 16.08 17.6855 17.245 16.5205 18.025V20.785H20.0755C22.1555 18.87 23.3555 16.05 23.3555 12.7Z" fill="#4285F4"/>
<path d="M12.7955 23.45C15.7655 23.45 18.2555 22.465 20.0755 20.785L16.5205 18.025C15.5355 18.685 14.2755 19.075 12.7955 19.075C9.93052 19.075 7.50552 17.14 6.64051 14.54H2.96552V17.39C4.77552 20.985 8.49551 23.45 12.7955 23.45Z" fill="#34A853"/>
<path d="M6.64053 14.54C6.42053 13.88 6.29553 13.175 6.29553 12.45C6.29553 11.725 6.42053 11.02 6.64053 10.36V7.51001H2.96553C2.19553 9.04287 1.79485 10.7346 1.79553 12.45C1.79553 14.225 2.22053 15.905 2.96553 17.39L6.64053 14.54Z" fill="#FBBC05"/>
<path d="M12.7955 5.82501C14.4105 5.82501 15.8605 6.38001 17.0005 7.47001L20.1555 4.31501C18.2505 2.54001 15.7605 1.45001 12.7955 1.45001C8.49551 1.45001 4.77552 3.91501 2.96552 7.51001L6.64051 10.36C7.50552 7.76001 9.93052 5.82501 12.7955 5.82501Z" fill="#EA4335"/>
</svg>
