<svg width="31" height="33" viewBox="0 0 31 33" fill="none" xmlns="http://www.w3.org/2000/svg">
<path d="M20.92 20.5034C21.57 21.3408 22.085 21.9893 23.305 21.7851C24.9 21.5195 26.23 22.8727 26.28 24.4966C26.335 26.197 25.045 27.5604 23.42 27.5144C21.845 27.4736 20.535 26.1255 20.765 24.4761C20.935 23.2557 20.355 22.6889 19.575 22.1119C15.905 23.751 14.775 23.751 11.43 22.0761C10.75 22.7604 9.875 23.1842 10.155 24.5987C10.435 26.0132 8.94 27.3919 7.515 27.3766C6.055 27.3561 4.875 26.1766 4.85 24.7059C4.825 23.2251 6.11 21.7187 7.525 21.9536C8.775 22.163 9.34 21.5298 10.035 20.6515C9.16 19.0021 8.51 17.2251 8.965 15.2489C9.105 14.631 9.355 14.0438 9.51 13.431C9.63 12.9612 9.885 12.3536 9.705 12.0166C9.385 11.4293 8.905 10.9698 7.995 11.1127C6.09 11.414 4.715 10.1783 4.72 8.38082C4.72 6.6804 6.06 5.40891 7.725 5.52636C9.53 5.65402 10.465 7.02763 10.32 8.99359C10.275 9.60636 10.795 10.2651 11.105 11.0208C14.02 9.17231 16.73 9.11614 19.425 10.8472C20.27 10.2038 20.865 9.61657 20.675 8.33487C20.44 6.72636 21.84 5.37316 23.415 5.34763C25.01 5.3221 26.335 6.72636 26.285 8.39614C26.235 10.0098 24.87 11.4242 23.335 11.1281C22.165 10.9034 21.56 11.3527 20.965 12.3127C22.56 14.963 22.655 17.6949 20.925 20.4983L20.92 20.5034ZM15.5 19.7783C16.125 19.7783 16.75 19.814 17.37 19.7681C18.435 19.6915 18.725 19.0634 18.165 18.1238C16.955 16.1119 14.08 16.1119 12.84 18.1187C12.275 19.0327 12.58 19.6966 13.63 19.7732C14.25 19.8191 14.875 19.7834 15.5 19.7783ZM13.995 14.1306C14.095 15.0855 14.635 15.6319 15.53 15.6115C16.42 15.591 17.005 15.0344 16.975 14.0744C16.95 13.1298 16.405 12.6038 15.465 12.6191C14.52 12.6395 14.065 13.2064 13.99 14.1306H13.995Z" fill="white"/>
</svg>
