<svg width="19" height="20" viewBox="0 0 19 20" fill="none" xmlns="http://www.w3.org/2000/svg">
<path d="M9.36632 7.2298C7.64601 7.2298 6.2421 8.6337 6.2421 10.354C6.2421 12.0743 7.64601 13.4782 9.36632 13.4782C11.0866 13.4782 12.4905 12.0743 12.4905 10.354C12.4905 8.6337 11.0866 7.2298 9.36632 7.2298ZM18.7366 10.354C18.7366 9.06027 18.7484 7.77824 18.6757 6.48683C18.603 4.98683 18.2609 3.65558 17.164 2.5587C16.0648 1.45949 14.7359 1.11964 13.2359 1.04699C11.9421 0.97433 10.6601 0.986049 9.36866 0.986049C8.07491 0.986049 6.79288 0.97433 5.50148 1.04699C4.00148 1.11964 2.67023 1.46183 1.57335 2.5587C0.474135 3.65792 0.134291 4.98683 0.0616346 6.48683C-0.0110216 7.78058 0.000697135 9.06261 0.000697135 10.354C0.000697135 11.6454 -0.0110216 12.9298 0.0616346 14.2212C0.134291 15.7212 0.476478 17.0525 1.57335 18.1493C2.67257 19.2485 4.00148 19.5884 5.50148 19.661C6.79523 19.7337 8.07726 19.722 9.36866 19.722C10.6624 19.722 11.9444 19.7337 13.2359 19.661C14.7359 19.5884 16.0671 19.2462 17.164 18.1493C18.2632 17.0501 18.603 15.7212 18.6757 14.2212C18.7507 12.9298 18.7366 11.6478 18.7366 10.354ZM9.36632 15.161C6.70617 15.161 4.55929 13.0142 4.55929 10.354C4.55929 7.69386 6.70617 5.54699 9.36632 5.54699C12.0265 5.54699 14.1734 7.69386 14.1734 10.354C14.1734 13.0142 12.0265 15.161 9.36632 15.161ZM14.3702 6.47277C13.7491 6.47277 13.2476 5.9712 13.2476 5.35011C13.2476 4.72902 13.7491 4.22745 14.3702 4.22745C14.9913 4.22745 15.4929 4.72902 15.4929 5.35011C15.4931 5.49759 15.4642 5.64366 15.4078 5.77995C15.3515 5.91624 15.2688 6.04008 15.1645 6.14436C15.0602 6.24865 14.9364 6.33133 14.8001 6.38769C14.6638 6.44404 14.5177 6.47295 14.3702 6.47277Z" fill="#AA5AFC"/>
</svg>
