<svg width="20" height="20" viewBox="0 0 20 20" fill="none" xmlns="http://www.w3.org/2000/svg">
<path d="M11.597 8.64248C11.2822 8.32757 10.9085 8.07776 10.4971 7.90732C10.0857 7.73688 9.64481 7.64916 9.19953 7.64916C8.75425 7.64916 8.31333 7.73688 7.90196 7.90732C7.49059 8.07776 7.11682 8.32757 6.80202 8.64248L3.377 12.0685C2.74128 12.7044 2.38418 13.5667 2.38428 14.4659C2.38437 15.365 2.74165 16.2273 3.3775 16.863C4.01336 17.4987 4.87572 17.8558 5.77487 17.8557C6.67401 17.8556 7.5363 17.4984 8.17202 16.8625L8.49302 16.5585M8.17202 12.0685C8.48683 12.3834 8.86059 12.6332 9.27196 12.8037C9.68333 12.9741 10.1243 13.0618 10.5695 13.0618C11.0148 13.0618 11.4557 12.9741 11.8671 12.8037C12.2785 12.6332 12.6522 12.3834 12.967 12.0685L16.3911 8.64248C17.0269 8.00675 17.3842 7.14447 17.3843 6.24533C17.3844 5.34618 17.0273 4.48382 16.3916 3.84796C15.7558 3.2121 14.8935 2.85483 13.9944 2.85474C13.0952 2.85464 12.2329 3.21174 11.597 3.84746L10.569 4.80847" stroke="#AA5AFC" stroke-width="2" stroke-linecap="round" stroke-linejoin="round"/>
</svg>
