<svg width="31" height="31" viewBox="0 0 31 31" fill="none" xmlns="http://www.w3.org/2000/svg">
<path fill-rule="evenodd" clip-rule="evenodd" d="M10.6111 9.38889C10.6111 8.09227 11.1262 6.84877 12.043 5.93192C12.9599 5.01508 14.2034 4.5 15.5 4.5C16.7966 4.5 18.0401 5.01508 18.957 5.93192C19.8738 6.84877 20.3889 8.09227 20.3889 9.38889C20.3889 10.6855 19.8738 11.929 18.957 12.8459C18.0401 13.7627 16.7966 14.2778 15.5 14.2778C14.2034 14.2778 12.9599 13.7627 12.043 12.8459C11.1262 11.929 10.6111 10.6855 10.6111 9.38889ZM10.6111 16.7222C8.99034 16.7222 7.43596 17.3661 6.2899 18.5121C5.14385 19.6582 4.5 21.2126 4.5 22.8333C4.5 23.8058 4.88631 24.7384 5.57394 25.4261C6.26158 26.1137 7.19421 26.5 8.16667 26.5H22.8333C23.8058 26.5 24.7384 26.1137 25.4261 25.4261C26.1137 24.7384 26.5 23.8058 26.5 22.8333C26.5 21.2126 25.8562 19.6582 24.7101 18.5121C23.564 17.3661 22.0097 16.7222 20.3889 16.7222H10.6111Z" fill="white"/>
</svg>
