<svg width="33" height="33" viewBox="0 0 33 33" fill="none" xmlns="http://www.w3.org/2000/svg">
<g clip-path="url(#clip0_2003_814)">
<path d="M18.2103 14.8612C17.6754 14.3466 17.3868 14.0858 17.1123 13.811C16.1622 12.8383 15.198 12.7889 14.2197 13.7616C12.3545 15.6224 10.4894 17.4762 8.63138 19.344C7.822 20.1546 7.59678 21.1061 8.45543 21.9731C9.32112 22.84 10.2361 22.6074 11.0525 21.7757C12.3264 20.4858 13.6496 19.2453 14.8812 17.9132C15.4654 17.2788 15.8736 17.307 16.3522 17.9555C16.9293 18.7378 18.1188 19.1325 18.168 20.1898C18.2525 22.107 18.1962 24.0453 18.0484 25.9625C17.9991 26.5757 17.2953 26.759 16.6478 26.7519C13.6636 26.7378 10.6865 26.7378 7.70235 26.7519C6.66071 26.7519 6.23842 26.2233 6.23842 25.2224C6.23842 19.4286 6.25249 13.6347 6.23842 7.84091C6.23842 6.7343 6.72405 6.12814 7.81496 6.26911C9.13813 6.43827 10.6021 5.66999 11.7845 6.90347C12.066 7.1995 12.622 7.09378 12.8613 6.69201C13.2202 6.09289 13.7692 6.26206 14.2619 6.24796C16.8894 6.16808 18.2032 7.4415 18.2032 10.0682V14.8541L18.2103 14.8612Z" fill="white"/>
<path d="M18.9915 15.4815C18.9915 12.9159 19.0056 10.4771 18.9915 8.03833C18.9774 6.07885 18.3018 5.34582 16.4015 5.32467C13.5933 5.28238 10.785 5.28238 7.98387 5.32467C6.13284 5.35286 5.3305 6.17048 5.32346 8.05242C5.29531 13.67 5.29531 19.2877 5.32346 24.9053C5.3305 26.8436 6.07654 27.5978 7.96276 27.6189C10.771 27.6542 13.5792 27.6542 16.3804 27.6189C18.3651 27.5978 18.9633 26.9634 18.9915 24.9617C19.0056 23.559 18.9915 22.1493 18.9915 20.7467C18.9915 20.3097 19.0408 19.8656 19.6108 19.9291C20.1176 19.9925 19.9276 20.4648 19.9346 20.7608C19.9557 22.4595 19.9979 24.1582 19.9276 25.8498C19.8572 27.4568 18.8296 28.4436 17.2249 28.4577C13.8959 28.493 10.5598 28.493 7.22375 28.4577C5.49237 28.4366 4.52815 27.4639 4.51408 25.7159C4.5 19.5837 4.5 13.4445 4.52111 7.29824C4.52815 5.46564 5.50645 4.53524 7.37155 4.52115C10.588 4.49295 13.8044 4.49295 17.0208 4.52115C18.724 4.53524 19.8361 5.37401 19.8994 6.92467C20.012 9.43392 19.9346 11.9573 19.9416 14.4736C19.9416 14.9247 19.7446 15.2489 18.9985 15.4815H18.9915Z" fill="white"/>
<path d="M28.4719 10.3431C28.4367 11.5414 28.5915 12.6621 26.9727 11.9361C26.4449 11.6964 26.1774 12.2956 25.8748 12.6057C24.0026 14.4524 22.1164 16.292 20.3076 18.1951C19.449 19.0973 18.8226 19.2313 17.8654 18.2727C15.6132 16.0172 15.571 16.0594 13.3047 18.322C12.3545 19.2735 11.4114 20.2251 10.4543 21.1696C10.0531 21.5643 9.60968 21.8321 9.08886 21.3528C8.54692 20.8594 8.80733 20.4013 9.20851 19.9995C11.0595 18.1317 12.9246 16.2779 14.7827 14.4172C15.5147 13.6771 16.0636 13.9872 16.7041 14.6004C17.4994 15.3546 18.1821 16.7995 19.1182 16.6797C19.998 16.574 20.7299 15.2841 21.5252 14.5017C22.4824 13.5572 23.4537 12.6268 24.3757 11.6471C24.8472 11.1467 25.4243 10.8083 25.1921 9.77222C24.9176 8.58103 26.1352 8.82068 26.9024 8.74315C28.3381 8.59513 28.6197 9.38456 28.4859 10.3431H28.4719Z" fill="white"/>
</g>
<defs>
<clipPath id="clip0_2003_814">
<rect width="24" height="24" fill="white" transform="translate(4.5 4.5)"/>
</clipPath>
</defs>
</svg>
