<svg width="20" height="19" viewBox="0 0 20 19" fill="none" xmlns="http://www.w3.org/2000/svg">
<path d="M10.0291 0.985352C10.8251 0.985352 13.5241 1.20835 14.7981 4.05835C15.2241 5.01735 15.1221 6.64735 15.0381 7.95635L15.0361 8.00335C15.0251 8.14935 15.0181 8.28135 15.0121 8.41335C15.1109 8.466 15.2222 8.49088 15.3341 8.48535C15.5751 8.47235 15.8641 8.38935 16.1651 8.24435C16.2809 8.18699 16.4088 8.15819 16.5381 8.16035C16.6841 8.16035 16.8271 8.18335 16.9471 8.23235C17.3081 8.35235 17.5371 8.61735 17.5371 8.90635C17.5501 9.26735 17.2241 9.58135 16.5621 9.84535C16.4911 9.86835 16.3931 9.90635 16.2861 9.94135C15.9231 10.0504 15.3691 10.2304 15.2131 10.5924C15.1411 10.7734 15.1641 11.0134 15.3111 11.2894L15.3231 11.3024C15.3711 11.4114 16.5511 14.0974 19.1771 14.5314C19.2734 14.5469 19.3607 14.597 19.4228 14.6722C19.4848 14.7475 19.5173 14.8429 19.5141 14.9404C19.5141 15.0004 19.5011 15.0594 19.4781 15.1214C19.2851 15.5784 18.4551 15.9164 16.9481 16.1424C16.9011 16.2154 16.8521 16.4444 16.8161 16.6014C16.7941 16.7454 16.7561 16.8904 16.7091 17.0454C16.6481 17.2634 16.4921 17.3704 16.2631 17.3704H16.2391C16.0933 17.3636 15.9484 17.3439 15.8061 17.3114C15.4696 17.2387 15.1263 17.2025 14.7821 17.2034C14.5421 17.2034 14.3021 17.2154 14.0501 17.2634C13.5671 17.3474 13.1461 17.6364 12.6641 17.9734C11.9771 18.4544 11.1951 19.0094 10.0151 19.0094C9.96708 19.0094 9.91908 18.9974 9.86908 18.9974H9.75008C8.56908 18.9974 7.79908 18.4544 7.11308 17.9614C6.63208 17.6234 6.22308 17.3354 5.74008 17.2504C5.49339 17.2135 5.24449 17.1935 4.99508 17.1904C4.56008 17.1904 4.22408 17.2624 3.97208 17.3104C3.80208 17.3454 3.65808 17.3694 3.53708 17.3694C3.43163 17.3774 3.32672 17.348 3.24078 17.2864C3.15483 17.2247 3.09333 17.1348 3.06708 17.0324C3.01908 16.8784 2.99608 16.7194 2.96008 16.5764C2.92208 16.4304 2.87508 16.1804 2.82708 16.1184C1.28408 15.9394 0.454082 15.6014 0.262082 15.1324C0.235563 15.0755 0.220606 15.014 0.218082 14.9514C0.214237 14.8537 0.246461 14.758 0.30861 14.6826C0.37076 14.6072 0.458491 14.5573 0.555082 14.5424C3.18008 14.1084 4.36008 11.4234 4.40908 11.3104L4.42208 11.2874C4.56708 11.0104 4.60208 10.7674 4.51808 10.5884C4.36208 10.2394 3.80708 10.0594 3.44808 9.93835C3.35256 9.91422 3.25923 9.88211 3.16908 9.84235C2.27908 9.49235 2.15808 9.09435 2.20708 8.81835C2.27908 8.43435 2.74808 8.18135 3.14608 8.18135C3.26308 8.18135 3.36308 8.20435 3.45408 8.24135C3.79108 8.39635 4.08908 8.48235 4.34208 8.48235C4.47171 8.48711 4.60032 8.4578 4.71508 8.39735L4.67408 7.93935C4.59408 6.63235 4.49208 5.00435 4.92108 4.05035C6.15708 1.21435 8.85008 0.996351 9.64508 0.996351L9.98008 0.985352H10.0291Z" fill="#AA5AFC"/>
</svg>
