<svg width="20" height="20" viewBox="0 0 20 20" fill="none" xmlns="http://www.w3.org/2000/svg">
<path d="M14.7078 4.17547C14.0242 3.39509 13.6475 2.3929 13.6478 1.35547H10.5578V13.7555C10.534 14.4265 10.2507 15.0621 9.76759 15.5284C9.28448 15.9947 8.63927 16.2554 7.96782 16.2555C6.54782 16.2555 5.36782 15.0955 5.36782 13.6555C5.36782 11.9355 7.02782 10.6455 8.73782 11.1755V8.01547C5.28782 7.55547 2.26782 10.2355 2.26782 13.6555C2.26782 16.9855 5.02782 19.3555 7.95782 19.3555C11.0978 19.3555 13.6478 16.8055 13.6478 13.6555V7.36547C14.9008 8.26532 16.4052 8.74812 17.9478 8.74547V5.65547C17.9478 5.65547 16.0678 5.74547 14.7078 4.17547Z" fill="#AA5AFC"/>
</svg>
