<svg width="20" height="20" viewBox="0 0 20 20" fill="none" xmlns="http://www.w3.org/2000/svg">
<path d="M18.8308 5.85528C18.7267 5.45521 18.5178 5.08987 18.2256 4.79659C17.9334 4.50331 17.5684 4.29259 17.1677 4.18598C14.7387 3.89899 12.2936 3.77031 9.84778 3.80076C7.402 3.77031 4.95682 3.89899 2.52785 4.18598C2.12721 4.29259 1.76214 4.50331 1.46995 4.79659C1.17776 5.08987 0.968917 5.45521 0.864766 5.85528C0.598877 7.34244 0.469512 8.85066 0.478274 10.3612C0.468738 11.8796 0.598104 13.3956 0.864766 14.8905C0.974314 15.2841 1.18555 15.6422 1.47739 15.929C1.76922 16.2158 2.13143 16.4212 2.52785 16.5248C4.95682 16.8118 7.402 16.9405 9.84778 16.91C12.2936 16.9405 14.7387 16.8118 17.1677 16.5248C17.5641 16.4212 17.9263 16.2158 18.2182 15.929C18.51 15.6422 18.7213 15.2841 18.8308 14.8905C19.0975 13.3956 19.2268 11.8796 19.2173 10.3612C19.2261 8.85066 19.0967 7.34244 18.8308 5.85528ZM7.92703 13.1512V7.59462L12.8343 10.3612L7.92703 13.1395V13.1512Z" fill="#AA5AFC"/>
</svg>
